<mxfile host="app.diagrams.net" modified="2021-03-06T06:10:55.549Z" agent="5.0 (Macintosh; Intel Mac OS X 10_15_7) AppleWebKit/537.36 (KHTML, like Gecko) Chrome/86.0.4240.193 Safari/537.36" etag="8dju0rIe45HYBnbcio6Q" version="14.4.4" type="github">
  <diagram id="0cLq2qANeZyDcPkR5vTk" name="Page-1">
    <mxGraphModel dx="946" dy="536" grid="1" gridSize="10" guides="1" tooltips="1" connect="1" arrows="1" fold="1" page="1" pageScale="1" pageWidth="827" pageHeight="1169" math="0" shadow="0">
      <root>
        <mxCell id="0" />
        <mxCell id="1" parent="0" />
        <mxCell id="myrcjjOZ3fUWklZhuV1p-1" style="edgeStyle=orthogonalEdgeStyle;rounded=0;orthogonalLoop=1;jettySize=auto;html=1;exitX=1;exitY=0.25;exitDx=0;exitDy=0;entryX=0;entryY=0.25;entryDx=0;entryDy=0;" edge="1" parent="1" source="myrcjjOZ3fUWklZhuV1p-2" target="myrcjjOZ3fUWklZhuV1p-4">
          <mxGeometry relative="1" as="geometry" />
        </mxCell>
        <mxCell id="myrcjjOZ3fUWklZhuV1p-2" value="pred" style="rounded=1;whiteSpace=wrap;html=1;fillColor=#ffe6cc;strokeColor=#d79b00;" vertex="1" parent="1">
          <mxGeometry x="100" y="170" width="100" height="50" as="geometry" />
        </mxCell>
        <mxCell id="myrcjjOZ3fUWklZhuV1p-3" style="edgeStyle=orthogonalEdgeStyle;rounded=0;orthogonalLoop=1;jettySize=auto;html=1;exitX=0;exitY=0.75;exitDx=0;exitDy=0;entryX=1;entryY=0.75;entryDx=0;entryDy=0;" edge="1" parent="1" source="myrcjjOZ3fUWklZhuV1p-4" target="myrcjjOZ3fUWklZhuV1p-2">
          <mxGeometry relative="1" as="geometry" />
        </mxCell>
        <mxCell id="myrcjjOZ3fUWklZhuV1p-18" style="edgeStyle=orthogonalEdgeStyle;rounded=0;orthogonalLoop=1;jettySize=auto;html=1;exitX=1;exitY=0.25;exitDx=0;exitDy=0;entryX=0;entryY=0.25;entryDx=0;entryDy=0;" edge="1" parent="1" source="myrcjjOZ3fUWklZhuV1p-4" target="myrcjjOZ3fUWklZhuV1p-17">
          <mxGeometry relative="1" as="geometry" />
        </mxCell>
        <mxCell id="myrcjjOZ3fUWklZhuV1p-4" value="node" style="rounded=1;whiteSpace=wrap;html=1;fillColor=#ffe6cc;strokeColor=#d79b00;" vertex="1" parent="1">
          <mxGeometry x="290" y="170" width="100" height="50" as="geometry" />
        </mxCell>
        <mxCell id="myrcjjOZ3fUWklZhuV1p-5" value="next" style="text;html=1;strokeColor=none;fillColor=none;align=center;verticalAlign=middle;whiteSpace=wrap;rounded=0;" vertex="1" parent="1">
          <mxGeometry x="220" y="150" width="40" height="20" as="geometry" />
        </mxCell>
        <mxCell id="myrcjjOZ3fUWklZhuV1p-6" value="prev" style="text;html=1;strokeColor=none;fillColor=none;align=center;verticalAlign=middle;whiteSpace=wrap;rounded=0;" vertex="1" parent="1">
          <mxGeometry x="220" y="220" width="40" height="20" as="geometry" />
        </mxCell>
        <mxCell id="myrcjjOZ3fUWklZhuV1p-27" style="edgeStyle=orthogonalEdgeStyle;rounded=0;orthogonalLoop=1;jettySize=auto;html=1;exitX=0.5;exitY=0;exitDx=0;exitDy=0;entryX=0.5;entryY=0;entryDx=0;entryDy=0;" edge="1" parent="1" source="myrcjjOZ3fUWklZhuV1p-9" target="myrcjjOZ3fUWklZhuV1p-22">
          <mxGeometry relative="1" as="geometry">
            <Array as="points">
              <mxPoint x="150" y="420" />
              <mxPoint x="520" y="420" />
            </Array>
          </mxGeometry>
        </mxCell>
        <mxCell id="myrcjjOZ3fUWklZhuV1p-9" value="pred" style="rounded=1;whiteSpace=wrap;html=1;fillColor=#ffe6cc;strokeColor=#d79b00;" vertex="1" parent="1">
          <mxGeometry x="100" y="450" width="100" height="50" as="geometry" />
        </mxCell>
        <mxCell id="myrcjjOZ3fUWklZhuV1p-10" style="edgeStyle=orthogonalEdgeStyle;rounded=0;orthogonalLoop=1;jettySize=auto;html=1;exitX=0;exitY=0.75;exitDx=0;exitDy=0;entryX=1;entryY=0.75;entryDx=0;entryDy=0;" edge="1" parent="1" source="myrcjjOZ3fUWklZhuV1p-11" target="myrcjjOZ3fUWklZhuV1p-9">
          <mxGeometry relative="1" as="geometry" />
        </mxCell>
        <mxCell id="myrcjjOZ3fUWklZhuV1p-29" style="edgeStyle=orthogonalEdgeStyle;rounded=0;orthogonalLoop=1;jettySize=auto;html=1;exitX=1;exitY=0.25;exitDx=0;exitDy=0;entryX=0;entryY=0.25;entryDx=0;entryDy=0;" edge="1" parent="1" source="myrcjjOZ3fUWklZhuV1p-11" target="myrcjjOZ3fUWklZhuV1p-22">
          <mxGeometry relative="1" as="geometry" />
        </mxCell>
        <mxCell id="myrcjjOZ3fUWklZhuV1p-11" value="node" style="rounded=1;whiteSpace=wrap;html=1;fillColor=#ffe6cc;strokeColor=#d79b00;" vertex="1" parent="1">
          <mxGeometry x="290" y="450" width="100" height="50" as="geometry" />
        </mxCell>
        <mxCell id="myrcjjOZ3fUWklZhuV1p-13" value="prev" style="text;html=1;strokeColor=none;fillColor=none;align=center;verticalAlign=middle;whiteSpace=wrap;rounded=0;" vertex="1" parent="1">
          <mxGeometry x="230" y="500" width="40" height="20" as="geometry" />
        </mxCell>
        <mxCell id="myrcjjOZ3fUWklZhuV1p-16" value="" style="shape=flexArrow;endArrow=classic;html=1;fillColor=#f8cecc;strokeColor=#b85450;" edge="1" parent="1">
          <mxGeometry width="50" height="50" relative="1" as="geometry">
            <mxPoint x="339.5" y="290" as="sourcePoint" />
            <mxPoint x="339.5" y="340" as="targetPoint" />
          </mxGeometry>
        </mxCell>
        <mxCell id="myrcjjOZ3fUWklZhuV1p-19" style="edgeStyle=orthogonalEdgeStyle;rounded=0;orthogonalLoop=1;jettySize=auto;html=1;exitX=0;exitY=0.75;exitDx=0;exitDy=0;entryX=1;entryY=0.75;entryDx=0;entryDy=0;" edge="1" parent="1" source="myrcjjOZ3fUWklZhuV1p-17" target="myrcjjOZ3fUWklZhuV1p-4">
          <mxGeometry relative="1" as="geometry" />
        </mxCell>
        <mxCell id="myrcjjOZ3fUWklZhuV1p-17" value="successor" style="rounded=1;whiteSpace=wrap;html=1;fillColor=#ffe6cc;strokeColor=#d79b00;" vertex="1" parent="1">
          <mxGeometry x="470" y="170" width="100" height="50" as="geometry" />
        </mxCell>
        <mxCell id="myrcjjOZ3fUWklZhuV1p-20" value="next" style="text;html=1;strokeColor=none;fillColor=none;align=center;verticalAlign=middle;whiteSpace=wrap;rounded=0;" vertex="1" parent="1">
          <mxGeometry x="414" y="150" width="40" height="20" as="geometry" />
        </mxCell>
        <mxCell id="myrcjjOZ3fUWklZhuV1p-21" value="prev" style="text;html=1;strokeColor=none;fillColor=none;align=center;verticalAlign=middle;whiteSpace=wrap;rounded=0;" vertex="1" parent="1">
          <mxGeometry x="414" y="220" width="40" height="20" as="geometry" />
        </mxCell>
        <mxCell id="myrcjjOZ3fUWklZhuV1p-23" style="edgeStyle=orthogonalEdgeStyle;rounded=0;orthogonalLoop=1;jettySize=auto;html=1;exitX=0;exitY=0.75;exitDx=0;exitDy=0;entryX=1;entryY=0.75;entryDx=0;entryDy=0;" edge="1" parent="1" source="myrcjjOZ3fUWklZhuV1p-22" target="myrcjjOZ3fUWklZhuV1p-11">
          <mxGeometry relative="1" as="geometry" />
        </mxCell>
        <mxCell id="myrcjjOZ3fUWklZhuV1p-22" value="successor" style="rounded=1;whiteSpace=wrap;html=1;fillColor=#ffe6cc;strokeColor=#d79b00;" vertex="1" parent="1">
          <mxGeometry x="470" y="450" width="100" height="50" as="geometry" />
        </mxCell>
        <mxCell id="myrcjjOZ3fUWklZhuV1p-24" value="prev" style="text;html=1;strokeColor=none;fillColor=none;align=center;verticalAlign=middle;whiteSpace=wrap;rounded=0;" vertex="1" parent="1">
          <mxGeometry x="414" y="500" width="40" height="20" as="geometry" />
        </mxCell>
        <mxCell id="myrcjjOZ3fUWklZhuV1p-28" value="next" style="text;html=1;strokeColor=none;fillColor=none;align=center;verticalAlign=middle;whiteSpace=wrap;rounded=0;" vertex="1" parent="1">
          <mxGeometry x="310" y="390" width="40" height="20" as="geometry" />
        </mxCell>
        <mxCell id="myrcjjOZ3fUWklZhuV1p-30" value="next" style="text;html=1;strokeColor=none;fillColor=none;align=center;verticalAlign=middle;whiteSpace=wrap;rounded=0;" vertex="1" parent="1">
          <mxGeometry x="414" y="430" width="40" height="20" as="geometry" />
        </mxCell>
      </root>
    </mxGraphModel>
  </diagram>
</mxfile>
